<?xml version="1.0" encoding="UTF-8"?>
<svg xmlns="http://www.w3.org/2000/svg" xmlns:xlink="http://www.w3.org/1999/xlink" width="256px" height="142px" viewBox="0 0 255 142" version="1.1">
<g id="surface1">
<path style=" stroke:none;fill-rule:nonzero;fill:rgb(0%,0%,0%);fill-opacity:1;" d="M 44.066406 51.382812 C 41.753906 52.390625 41.753906 52.390625 41.753906 73.988281 C 41.753906 95.738281 41.753906 95.589844 44.140625 96.597656 C 46.117188 97.417969 76.6875 97.417969 78.289062 96.597656 C 80.636719 95.402344 80.527344 96.335938 80.527344 73.988281 C 80.527344 51.644531 80.636719 52.578125 78.289062 51.382812 C 76.722656 50.558594 45.929688 50.558594 44.066406 51.382812 Z M 71.726562 60.050781 C 72.511719 63.527344 73.070312 67.1875 73.070312 68.796875 L 73.070312 70.140625 L 68.597656 69.953125 C 66.097656 69.839844 64.121094 69.917969 64.121094 70.101562 C 64.121094 71.597656 66.65625 84.601562 67.703125 88.414062 C 67.886719 89.125 67.738281 89.273438 66.472656 89.460938 C 64.234375 89.832031 58.121094 90.429688 56.515625 90.429688 L 55.0625 90.429688 L 55.324219 87.328125 C 55.621094 83.929688 56.332031 78.660156 57.300781 73.167969 C 57.636719 71.148438 57.824219 69.429688 57.710938 69.320312 C 57.636719 69.207031 55.699219 68.871094 53.460938 68.496094 C 51.222656 68.160156 49.285156 67.710938 49.136719 67.488281 C 48.988281 67.261719 48.835938 66.476562 48.835938 65.769531 C 48.835938 65.058594 48.988281 64.273438 49.136719 64.050781 C 49.285156 63.863281 52.007812 63.039062 55.175781 62.253906 C 58.34375 61.507812 63.042969 60.164062 65.613281 59.265625 C 68.1875 58.371094 70.460938 57.621094 70.722656 57.585938 C 70.945312 57.585938 71.390625 58.632812 71.726562 60.050781 Z M 71.726562 60.050781 "/>
<path style=" stroke:none;fill-rule:nonzero;fill:rgb(0%,0%,0%);fill-opacity:1;" d="M 90.890625 63.5625 C 89.734375 64.234375 90.144531 65.132812 92.902344 67.898438 C 95.625 70.664062 96.484375 71.074219 97.265625 70.101562 C 97.824219 69.429688 97.453125 68.609375 95.8125 67.078125 L 94.65625 65.957031 L 98.273438 65.769531 C 101.105469 65.617188 101.960938 65.433594 102.261719 64.945312 C 102.558594 64.496094 102.523438 64.160156 102.1875 63.75 C 101.777344 63.265625 100.808594 63.152344 96.59375 63.152344 C 93.796875 63.152344 91.226562 63.339844 90.890625 63.5625 Z M 90.890625 63.5625 "/>
<path style=" stroke:none;fill-rule:nonzero;fill:rgb(0%,0%,0%);fill-opacity:1;" d="M 133.316406 63.75 C 132.832031 64.234375 132.71875 65.46875 132.71875 71.523438 C 132.71875 78.210938 132.757812 78.773438 133.464844 79.40625 C 134.171875 80.042969 134.246094 80.003906 136.523438 77.800781 L 138.871094 75.523438 L 141.183594 77.765625 C 143.195312 79.707031 143.605469 79.96875 144.277344 79.59375 C 145.46875 78.960938 145.171875 78.210938 142.898438 75.820312 L 140.773438 73.578125 L 142.972656 71.375 C 144.425781 69.878906 145.058594 68.980469 144.910156 68.609375 C 144.3125 67.078125 143.457031 67.523438 139.652344 71.335938 C 137.566406 73.390625 135.738281 75.109375 135.589844 75.109375 C 135.441406 75.109375 135.328125 72.605469 135.328125 69.578125 C 135.328125 65.769531 135.179688 63.898438 134.882812 63.601562 C 134.285156 63.003906 134.023438 63.039062 133.316406 63.75 Z M 133.316406 63.75 "/>
<path style=" stroke:none;fill-rule:nonzero;fill:rgb(0%,0%,0%);fill-opacity:1;" d="M 146.773438 63.5625 C 146.214844 63.898438 146.140625 64.722656 146.140625 71.558594 C 146.140625 78.398438 146.214844 79.222656 146.773438 79.558594 C 147.183594 79.78125 147.667969 79.78125 148.078125 79.558594 C 148.675781 79.222656 148.75 78.546875 148.75 73.316406 L 148.75 67.449219 L 152.664062 71.375 C 156.542969 75.222656 156.578125 75.296875 156.578125 77.054688 C 156.578125 79.144531 157.363281 80.191406 158.480469 79.59375 C 159.152344 79.222656 159.1875 78.734375 159.1875 71.636719 C 159.1875 61.84375 159.113281 61.734375 155.125 65.582031 L 152.628906 68.011719 L 150.578125 65.917969 C 148.152344 63.414062 147.632812 63.117188 146.773438 63.5625 Z M 156.578125 69.953125 L 156.578125 71.933594 L 155.574219 70.925781 L 154.566406 69.917969 L 155.460938 68.945312 C 155.945312 68.421875 156.390625 68.011719 156.46875 68.011719 C 156.542969 68.011719 156.578125 68.90625 156.578125 69.953125 Z M 156.578125 69.953125 "/>
<path style=" stroke:none;fill-rule:nonzero;fill:rgb(0%,0%,0%);fill-opacity:1;" d="M 174.773438 63.5625 C 173.953125 64.050781 173.914062 65.246094 174.699219 65.542969 C 175.03125 65.65625 177.195312 65.769531 179.542969 65.769531 L 183.792969 65.769531 L 183.792969 70.066406 C 183.792969 75.074219 183.382812 76.304688 181.445312 76.941406 C 179.246094 77.6875 176.710938 76.121094 176.710938 74.0625 C 176.710938 73.203125 176.003906 72.496094 175.144531 72.496094 C 173.429688 72.496094 173.914062 75.78125 175.925781 77.765625 C 178.835938 80.679688 182.863281 80.304688 185.433594 76.828125 C 186.140625 75.933594 186.21875 75.183594 186.328125 70.027344 C 186.402344 65.917969 186.328125 64.085938 185.992188 63.675781 C 185.65625 63.265625 184.464844 63.152344 180.476562 63.152344 C 177.679688 63.152344 175.109375 63.339844 174.773438 63.5625 Z M 174.773438 63.5625 "/>
<path style=" stroke:none;fill-rule:nonzero;fill:rgb(0%,0%,0%);fill-opacity:1;" d="M 201.613281 63.5625 C 201.015625 63.898438 200.941406 64.683594 200.941406 71.558594 C 200.941406 78.585938 200.980469 79.222656 201.613281 79.558594 C 202.136719 79.820312 202.546875 79.78125 203.066406 79.40625 C 203.703125 78.960938 204.039062 78.960938 205.304688 79.40625 C 207.691406 80.230469 210.300781 79.40625 211.867188 77.242188 C 213.058594 75.671875 213.320312 74.363281 212.910156 72.457031 C 212.050781 68.683594 207.652344 66.628906 204.222656 68.457031 C 203.628906 68.757812 203.550781 68.570312 203.550781 66.402344 C 203.550781 65.058594 203.367188 63.863281 203.105469 63.601562 C 202.582031 63.078125 202.433594 63.078125 201.613281 63.5625 Z M 208.773438 70.8125 C 210.746094 71.820312 211.007812 74.773438 209.292969 76.269531 C 208.175781 77.203125 207.242188 77.390625 205.902344 76.941406 C 204.632812 76.53125 203.550781 75.035156 203.550781 73.726562 C 203.589844 72.121094 205.417969 70.289062 207.019531 70.253906 C 207.390625 70.253906 208.175781 70.515625 208.773438 70.8125 Z M 208.773438 70.8125 "/>
<path style=" stroke:none;fill-rule:nonzero;fill:rgb(0%,0%,0%);fill-opacity:1;" d="M 100.285156 68.347656 C 100.097656 68.757812 99.914062 71.148438 99.914062 73.691406 C 99.914062 77.277344 100.0625 78.511719 100.507812 79.144531 C 100.957031 79.820312 101.21875 79.894531 101.8125 79.59375 C 102.410156 79.257812 102.523438 78.773438 102.523438 76.828125 C 102.523438 72.308594 103.230469 70.960938 105.878906 70.253906 C 107.109375 69.917969 107.367188 69.691406 107.367188 68.945312 C 107.367188 67.710938 106.0625 67.414062 104.238281 68.160156 C 103.007812 68.683594 102.78125 68.683594 102.261719 68.199219 C 101.515625 67.449219 100.769531 67.488281 100.285156 68.347656 Z M 100.285156 68.347656 "/>
<path style=" stroke:none;fill-rule:nonzero;fill:rgb(0%,0%,0%);fill-opacity:1;" d="M 110.835938 68.421875 C 105.953125 70.851562 106.734375 78.0625 112.027344 79.558594 C 113.222656 79.894531 115.347656 79.632812 116.277344 79.070312 C 116.503906 78.921875 117.0625 79.070312 117.546875 79.40625 C 118.253906 79.855469 118.550781 79.894531 119.039062 79.484375 C 119.597656 79.070312 119.671875 78.363281 119.597656 73.652344 C 119.484375 69.019531 119.410156 68.234375 118.851562 67.859375 C 118.328125 67.5625 118.066406 67.597656 117.582031 68.085938 C 117.0625 68.609375 116.835938 68.609375 115.71875 68.160156 C 114.003906 67.449219 112.664062 67.488281 110.835938 68.421875 Z M 116.203125 71.558594 C 119 74.8125 114.414062 79.035156 111.207031 76.15625 C 109.679688 74.738281 109.828125 72.308594 111.582031 70.886719 C 112.773438 69.953125 115.121094 70.289062 116.203125 71.558594 Z M 116.203125 71.558594 "/>
<path style=" stroke:none;fill-rule:nonzero;fill:rgb(0%,0%,0%);fill-opacity:1;" d="M 124.144531 68.457031 C 120.527344 70.402344 119.78125 74.921875 122.617188 77.765625 C 123.363281 78.511719 124.59375 79.296875 125.335938 79.519531 C 128.46875 80.378906 132.792969 77.988281 131.117188 76.34375 C 130.59375 75.820312 130.371094 75.859375 128.84375 76.605469 C 126.640625 77.652344 124.964844 77.203125 123.957031 75.335938 C 123.136719 73.800781 123.398438 72.421875 124.777344 71.148438 C 125.933594 70.066406 127.238281 69.992188 129.027344 70.960938 C 131.527344 72.308594 132.683594 70.253906 130.257812 68.71875 C 128.246094 67.488281 126.15625 67.414062 124.144531 68.457031 Z M 124.144531 68.457031 "/>
<path style=" stroke:none;fill-rule:nonzero;fill:rgb(0%,0%,0%);fill-opacity:1;" d="M 160.640625 68.457031 C 160.046875 69.578125 160.417969 75 161.203125 76.53125 C 162.132812 78.363281 164.484375 79.746094 166.609375 79.707031 C 167.578125 79.707031 168.769531 79.484375 169.179688 79.257812 C 169.628906 78.996094 170 78.960938 170 79.183594 C 170 79.929688 168.621094 81.125 167.203125 81.574219 C 166.011719 81.984375 165.710938 82.285156 165.710938 82.996094 C 165.710938 85.125 170.296875 83.816406 171.902344 81.203125 C 172.722656 79.929688 172.796875 79.257812 172.90625 74.363281 C 173.058594 68.457031 172.757812 67.300781 171.230469 67.785156 C 170.523438 68.011719 170.449219 68.382812 170.296875 71.597656 C 170.148438 74.847656 170.074219 75.222656 169.140625 76.15625 C 168.359375 76.941406 167.800781 77.128906 166.644531 77.128906 C 163.960938 77.054688 162.917969 75.261719 162.917969 70.851562 C 162.917969 68.683594 162.804688 68.046875 162.320312 67.859375 C 161.386719 67.488281 161.089844 67.597656 160.640625 68.457031 Z M 160.640625 68.457031 "/>
<path style=" stroke:none;fill-rule:nonzero;fill:rgb(0%,0%,0%);fill-opacity:1;" d="M 190.839844 68.496094 C 188.566406 69.691406 187.335938 72.121094 187.707031 74.625 C 188.191406 77.949219 191.882812 80.453125 195.089844 79.558594 C 197.738281 78.847656 199.824219 76.269531 199.824219 73.691406 C 199.824219 71.859375 198.296875 69.46875 196.46875 68.496094 C 194.417969 67.414062 192.925781 67.414062 190.839844 68.496094 Z M 196.132812 71.222656 C 196.507812 71.558594 196.917969 72.382812 197.066406 73.054688 C 197.773438 76.941406 192.554688 78.808594 190.691406 75.335938 C 189.871094 73.800781 190.132812 72.421875 191.546875 71.113281 C 192.367188 70.363281 192.816406 70.214844 193.972656 70.363281 C 194.753906 70.476562 195.722656 70.851562 196.132812 71.222656 Z M 196.132812 71.222656 "/>
<path style=" stroke:none;fill-rule:nonzero;fill:rgb(0%,0%,0%);fill-opacity:1;" d="M 216.414062 67.972656 C 214.511719 68.796875 213.730469 70.738281 214.511719 72.679688 C 215.257812 74.4375 216.863281 75.109375 220.515625 75.109375 C 222.675781 75.109375 223.386719 75.222656 223.535156 75.671875 C 224.019531 76.867188 222.976562 77.351562 219.882812 77.351562 C 217.496094 77.351562 216.898438 77.464844 216.710938 77.949219 C 216.601562 78.285156 216.636719 78.847656 216.863281 79.183594 C 217.457031 80.082031 223.164062 80.003906 224.578125 79.109375 C 225.957031 78.175781 226.441406 76.753906 225.957031 75.109375 C 225.363281 73.128906 223.984375 72.496094 220.402344 72.496094 C 217.308594 72.496094 216.378906 72.082031 216.824219 70.851562 C 217.011719 70.363281 217.609375 70.253906 219.917969 70.253906 C 223.164062 70.253906 223.796875 69.992188 223.609375 68.71875 C 223.496094 67.859375 223.347656 67.824219 220.328125 67.75 C 218.578125 67.710938 216.824219 67.824219 216.414062 67.972656 Z M 216.414062 67.972656 "/>
<path style=" stroke:none;fill-rule:nonzero;fill:rgb(0%,0%,0%);fill-opacity:1;" d="M 90.851562 68.421875 C 89.734375 69.058594 90.144531 70.027344 92.640625 72.496094 C 95.066406 74.886719 95.066406 74.921875 95.066406 76.980469 C 95.066406 79.667969 95.847656 80.605469 97.078125 79.371094 C 97.488281 78.960938 97.675781 78.0625 97.675781 76.382812 L 97.675781 73.953125 L 95.550781 71.671875 C 92.679688 68.683594 91.671875 67.972656 90.851562 68.421875 Z M 90.851562 68.421875 "/>
</g>
</svg>
