<?xml version="1.0" encoding="UTF-8"?>
<svg xmlns="http://www.w3.org/2000/svg" xmlns:xlink="http://www.w3.org/1999/xlink" width="180px" height="100px" viewBox="0 0 180 100" version="1.1">
<g id="surface1">
<path style=" stroke:none;fill-rule:nonzero;fill:rgb(0%,0%,0%);fill-opacity:1;" d="M 31.398438 36.183594 C 29.773438 36.894531 29.773438 36.894531 29.773438 52.105469 C 29.773438 67.421875 29.773438 67.316406 31.449219 68.027344 C 32.835938 68.605469 54.308594 68.605469 55.433594 68.027344 C 57.082031 67.183594 57.007812 67.84375 57.007812 52.105469 C 57.007812 36.371094 57.082031 37.027344 55.433594 36.183594 C 54.335938 35.605469 32.707031 35.605469 31.398438 36.183594 Z M 50.824219 42.289062 C 51.375 44.738281 51.769531 47.316406 51.769531 48.449219 L 51.769531 49.394531 L 48.628906 49.261719 C 46.871094 49.183594 45.484375 49.238281 45.484375 49.367188 C 45.484375 50.421875 47.261719 59.578125 48 62.261719 C 48.128906 62.765625 48.023438 62.867188 47.132812 63 C 45.5625 63.261719 41.269531 63.683594 40.140625 63.683594 L 39.121094 63.683594 L 39.304688 61.5 C 39.511719 59.105469 40.011719 55.394531 40.691406 51.527344 C 40.929688 50.105469 41.058594 48.894531 40.980469 48.816406 C 40.929688 48.738281 39.566406 48.5 37.996094 48.238281 C 36.421875 48 35.0625 47.683594 34.957031 47.527344 C 34.855469 47.367188 34.746094 46.816406 34.746094 46.316406 C 34.746094 45.816406 34.855469 45.261719 34.957031 45.105469 C 35.0625 44.972656 36.972656 44.394531 39.199219 43.839844 C 41.425781 43.316406 44.726562 42.367188 46.53125 41.738281 C 48.339844 41.105469 49.9375 40.578125 50.121094 40.554688 C 50.277344 40.554688 50.589844 41.289062 50.824219 42.289062 Z M 50.824219 42.289062 "/>
<path style=" stroke:none;fill-rule:nonzero;fill:rgb(0%,0%,0%);fill-opacity:1;" d="M 64.285156 44.761719 C 63.472656 45.234375 63.761719 45.867188 65.699219 47.816406 C 67.609375 49.761719 68.214844 50.050781 68.761719 49.367188 C 69.15625 48.894531 68.894531 48.316406 67.742188 47.238281 L 66.929688 46.449219 L 69.472656 46.316406 C 71.460938 46.210938 72.0625 46.078125 72.273438 45.734375 C 72.480469 45.417969 72.457031 45.183594 72.21875 44.894531 C 71.933594 44.554688 71.253906 44.472656 68.292969 44.472656 C 66.328125 44.472656 64.523438 44.605469 64.285156 44.761719 Z M 64.285156 44.761719 "/>
<path style=" stroke:none;fill-rule:nonzero;fill:rgb(0%,0%,0%);fill-opacity:1;" d="M 94.085938 44.894531 C 93.746094 45.234375 93.664062 46.105469 93.664062 50.367188 C 93.664062 55.078125 93.691406 55.472656 94.191406 55.917969 C 94.6875 56.367188 94.738281 56.339844 96.339844 54.789062 L 97.988281 53.183594 L 99.609375 54.765625 C 101.023438 56.132812 101.3125 56.316406 101.785156 56.050781 C 102.621094 55.605469 102.414062 55.078125 100.816406 53.394531 L 99.324219 51.816406 L 100.867188 50.265625 C 101.886719 49.210938 102.332031 48.578125 102.230469 48.316406 C 101.808594 47.238281 101.207031 47.550781 98.535156 50.238281 C 97.070312 51.683594 95.785156 52.894531 95.683594 52.894531 C 95.578125 52.894531 95.5 51.128906 95.5 49 C 95.5 46.316406 95.394531 45 95.1875 44.789062 C 94.765625 44.367188 94.582031 44.394531 94.085938 44.894531 Z M 94.085938 44.894531 "/>
<path style=" stroke:none;fill-rule:nonzero;fill:rgb(0%,0%,0%);fill-opacity:1;" d="M 103.539062 44.761719 C 103.144531 45 103.09375 45.578125 103.09375 50.394531 C 103.09375 55.210938 103.144531 55.789062 103.539062 56.027344 C 103.824219 56.183594 104.164062 56.183594 104.453125 56.027344 C 104.875 55.789062 104.925781 55.316406 104.925781 51.632812 L 104.925781 47.5 L 107.675781 50.265625 C 110.398438 52.972656 110.425781 53.027344 110.425781 54.265625 C 110.425781 55.734375 110.976562 56.472656 111.761719 56.050781 C 112.234375 55.789062 112.257812 55.445312 112.257812 50.449219 C 112.257812 43.550781 112.203125 43.476562 109.402344 46.183594 L 107.652344 47.894531 L 106.210938 46.421875 C 104.507812 44.65625 104.140625 44.449219 103.539062 44.761719 Z M 110.425781 49.261719 L 110.425781 50.65625 L 109.71875 49.949219 L 109.011719 49.238281 L 109.640625 48.554688 C 109.980469 48.183594 110.292969 47.894531 110.347656 47.894531 C 110.398438 47.894531 110.425781 48.527344 110.425781 49.261719 Z M 110.425781 49.261719 "/>
<path style=" stroke:none;fill-rule:nonzero;fill:rgb(0%,0%,0%);fill-opacity:1;" d="M 123.203125 44.761719 C 122.628906 45.105469 122.601562 45.949219 123.152344 46.15625 C 123.386719 46.238281 124.90625 46.316406 126.554688 46.316406 L 129.539062 46.316406 L 129.539062 49.34375 C 129.539062 52.871094 129.25 53.734375 127.890625 54.183594 C 126.347656 54.710938 124.566406 53.605469 124.566406 52.15625 C 124.566406 51.550781 124.070312 51.054688 123.464844 51.054688 C 122.261719 51.054688 122.601562 53.367188 124.015625 54.765625 C 126.058594 56.816406 128.886719 56.550781 130.691406 54.105469 C 131.1875 53.472656 131.242188 52.945312 131.320312 49.316406 C 131.371094 46.421875 131.320312 45.132812 131.085938 44.84375 C 130.847656 44.554688 130.011719 44.472656 127.210938 44.472656 C 125.246094 44.472656 123.441406 44.605469 123.203125 44.761719 Z M 123.203125 44.761719 "/>
<path style=" stroke:none;fill-rule:nonzero;fill:rgb(0%,0%,0%);fill-opacity:1;" d="M 142.058594 44.761719 C 141.636719 45 141.585938 45.550781 141.585938 50.394531 C 141.585938 55.34375 141.613281 55.789062 142.058594 56.027344 C 142.425781 56.210938 142.710938 56.183594 143.078125 55.917969 C 143.523438 55.605469 143.761719 55.605469 144.648438 55.917969 C 146.324219 56.5 148.160156 55.917969 149.257812 54.394531 C 150.097656 53.289062 150.28125 52.367188 149.992188 51.027344 C 149.386719 48.367188 146.296875 46.921875 143.890625 48.210938 C 143.472656 48.421875 143.417969 48.289062 143.417969 46.761719 C 143.417969 45.816406 143.289062 44.972656 143.105469 44.789062 C 142.738281 44.421875 142.632812 44.421875 142.058594 44.761719 Z M 147.085938 49.867188 C 148.472656 50.578125 148.65625 52.65625 147.449219 53.710938 C 146.667969 54.367188 146.011719 54.5 145.070312 54.183594 C 144.179688 53.894531 143.417969 52.839844 143.417969 51.921875 C 143.445312 50.789062 144.730469 49.5 145.855469 49.472656 C 146.113281 49.472656 146.667969 49.660156 147.085938 49.867188 Z M 147.085938 49.867188 "/>
<path style=" stroke:none;fill-rule:nonzero;fill:rgb(0%,0%,0%);fill-opacity:1;" d="M 70.882812 48.132812 C 70.753906 48.421875 70.625 50.105469 70.625 51.894531 C 70.625 54.421875 70.726562 55.289062 71.039062 55.734375 C 71.355469 56.210938 71.539062 56.265625 71.957031 56.050781 C 72.378906 55.816406 72.457031 55.472656 72.457031 54.105469 C 72.457031 50.921875 72.953125 49.972656 74.8125 49.472656 C 75.675781 49.238281 75.859375 49.078125 75.859375 48.554688 C 75.859375 47.683594 74.941406 47.476562 73.660156 48 C 72.796875 48.367188 72.636719 48.367188 72.273438 48.027344 C 71.75 47.5 71.226562 47.527344 70.882812 48.132812 Z M 70.882812 48.132812 "/>
<path style=" stroke:none;fill-rule:nonzero;fill:rgb(0%,0%,0%);fill-opacity:1;" d="M 78.296875 48.183594 C 74.867188 49.894531 75.414062 54.972656 79.132812 56.027344 C 79.972656 56.265625 81.464844 56.078125 82.117188 55.683594 C 82.277344 55.578125 82.667969 55.683594 83.007812 55.917969 C 83.503906 56.234375 83.714844 56.265625 84.058594 55.976562 C 84.449219 55.683594 84.5 55.183594 84.449219 51.867188 C 84.371094 48.605469 84.316406 48.050781 83.925781 47.789062 C 83.558594 47.578125 83.375 47.605469 83.035156 47.949219 C 82.667969 48.316406 82.507812 48.316406 81.726562 48 C 80.519531 47.5 79.578125 47.527344 78.296875 48.183594 Z M 82.066406 50.394531 C 84.03125 52.683594 80.808594 55.660156 78.554688 53.632812 C 77.484375 52.632812 77.585938 50.921875 78.820312 49.921875 C 79.65625 49.261719 81.304688 49.5 82.066406 50.394531 Z M 82.066406 50.394531 "/>
<path style=" stroke:none;fill-rule:nonzero;fill:rgb(0%,0%,0%);fill-opacity:1;" d="M 87.644531 48.210938 C 85.101562 49.578125 84.578125 52.761719 86.570312 54.765625 C 87.09375 55.289062 87.957031 55.84375 88.480469 56 C 90.679688 56.605469 93.71875 54.921875 92.539062 53.761719 C 92.171875 53.394531 92.015625 53.421875 90.945312 53.949219 C 89.394531 54.683594 88.21875 54.367188 87.511719 53.054688 C 86.933594 51.972656 87.117188 51 88.085938 50.105469 C 88.898438 49.34375 89.816406 49.289062 91.074219 49.972656 C 92.828125 50.921875 93.640625 49.472656 91.9375 48.394531 C 90.523438 47.527344 89.054688 47.476562 87.644531 48.210938 Z M 87.644531 48.210938 "/>
<path style=" stroke:none;fill-rule:nonzero;fill:rgb(0%,0%,0%);fill-opacity:1;" d="M 113.277344 48.210938 C 112.859375 49 113.121094 52.816406 113.671875 53.894531 C 114.324219 55.183594 115.976562 56.160156 117.46875 56.132812 C 118.152344 56.132812 118.988281 55.976562 119.277344 55.816406 C 119.589844 55.632812 119.851562 55.605469 119.851562 55.761719 C 119.851562 56.289062 118.882812 57.128906 117.886719 57.445312 C 117.050781 57.734375 116.839844 57.949219 116.839844 58.449219 C 116.839844 59.945312 120.058594 59.027344 121.1875 57.183594 C 121.765625 56.289062 121.816406 55.816406 121.894531 52.367188 C 122 48.210938 121.789062 47.394531 120.714844 47.734375 C 120.21875 47.894531 120.167969 48.15625 120.058594 50.421875 C 119.957031 52.710938 119.902344 52.972656 119.25 53.632812 C 118.699219 54.183594 118.308594 54.316406 117.496094 54.316406 C 115.609375 54.265625 114.878906 53 114.878906 49.894531 C 114.878906 48.367188 114.796875 47.921875 114.457031 47.789062 C 113.800781 47.527344 113.59375 47.605469 113.277344 48.210938 Z M 113.277344 48.210938 "/>
<path style=" stroke:none;fill-rule:nonzero;fill:rgb(0%,0%,0%);fill-opacity:1;" d="M 134.488281 48.238281 C 132.894531 49.078125 132.027344 50.789062 132.289062 52.554688 C 132.628906 54.894531 135.222656 56.65625 137.476562 56.027344 C 139.335938 55.527344 140.800781 53.710938 140.800781 51.894531 C 140.800781 50.605469 139.726562 48.921875 138.445312 48.238281 C 137.003906 47.476562 135.953125 47.476562 134.488281 48.238281 Z M 138.207031 50.15625 C 138.472656 50.394531 138.757812 50.972656 138.863281 51.445312 C 139.359375 54.183594 135.695312 55.5 134.386719 53.054688 C 133.808594 51.972656 133.992188 51 134.984375 50.078125 C 135.5625 49.550781 135.878906 49.445312 136.691406 49.550781 C 137.238281 49.632812 137.917969 49.894531 138.207031 50.15625 Z M 138.207031 50.15625 "/>
<path style=" stroke:none;fill-rule:nonzero;fill:rgb(0%,0%,0%);fill-opacity:1;" d="M 152.453125 47.867188 C 151.117188 48.449219 150.566406 49.816406 151.117188 51.183594 C 151.640625 52.421875 152.769531 52.894531 155.332031 52.894531 C 156.851562 52.894531 157.351562 52.972656 157.453125 53.289062 C 157.796875 54.132812 157.0625 54.472656 154.890625 54.472656 C 153.214844 54.472656 152.792969 54.550781 152.660156 54.894531 C 152.585938 55.128906 152.609375 55.527344 152.769531 55.761719 C 153.183594 56.394531 157.195312 56.339844 158.1875 55.710938 C 159.15625 55.054688 159.496094 54.050781 159.15625 52.894531 C 158.738281 51.5 157.769531 51.054688 155.253906 51.054688 C 153.082031 51.054688 152.429688 50.761719 152.742188 49.894531 C 152.871094 49.550781 153.292969 49.472656 154.914062 49.472656 C 157.195312 49.472656 157.636719 49.289062 157.507812 48.394531 C 157.425781 47.789062 157.324219 47.761719 155.203125 47.710938 C 153.972656 47.683594 152.742188 47.761719 152.453125 47.867188 Z M 152.453125 47.867188 "/>
<path style=" stroke:none;fill-rule:nonzero;fill:rgb(0%,0%,0%);fill-opacity:1;" d="M 64.257812 48.183594 C 63.472656 48.632812 63.761719 49.316406 65.515625 51.054688 C 67.21875 52.738281 67.21875 52.761719 67.21875 54.210938 C 67.21875 56.105469 67.765625 56.765625 68.632812 55.894531 C 68.917969 55.605469 69.050781 54.972656 69.050781 53.789062 L 69.050781 52.078125 L 67.558594 50.472656 C 65.542969 48.367188 64.835938 47.867188 64.257812 48.183594 Z M 64.257812 48.183594 "/>
</g>
</svg>
